<?xml version="1.0" encoding="utf-8"?>
<!-- Generator: Adobe Illustrator 27.3.1, SVG Export Plug-In . SVG Version: 6.00 Build 0)  -->
<svg version="1.1" id="Layer_1" xmlns="http://www.w3.org/2000/svg" xmlns:xlink="http://www.w3.org/1999/xlink" x="0px" y="0px"
	 viewBox="0 0 512 512" style="enable-background:new 0 0 512 512;" xml:space="preserve">
<style type="text/css">
	.st0{fill:#9F1C20;}
</style>
<g transform="matrix(0.95,0,0,0.95,0.6000000000000014,0.6000000000000014)">
	<path class="st0" d="M418.2,34.2H119.5C60.6,34.2,12.9,82,12.8,140.8v256c0.1,58.9,47.8,106.6,106.7,106.7h298.7
		c58.9-0.1,106.6-47.8,106.7-106.7v-256C524.8,82,477.1,34.2,418.2,34.2z M119.5,76.8h298.7c26.1,0.1,49.6,16,59.3,40.3L314.1,280.5
		c-25,24.9-65.5,24.9-90.5,0L60.2,117.1C69.9,92.8,93.4,76.9,119.5,76.8z M418.2,460.8H119.5c-35.3,0-64-28.7-64-64v-224
		l137.9,137.8c41.7,41.6,109.2,41.6,150.9,0l137.9-137.8v224C482.2,432.2,453.5,460.8,418.2,460.8z"/>
</g>
</svg>
