<?xml version="1.0" encoding="UTF-8"?>
<svg id="Layer_2" data-name="Layer 2" xmlns="http://www.w3.org/2000/svg" viewBox="0 0 56.9449536188 56.9558575483">
  <defs>
    <style>
      .cls-1 {
        fill: #9f1c20;
      }
    </style>
  </defs>
  <g id="Layer_1-2" data-name="Layer 1">
    <path class="cls-1" d="m28.5292434675,35.1731282043c-1.7588968929,1.7334249859-3.4375558082,3.3797553735-5.1074167745,5.0349616076-5.0876029297,5.0429345369-10.1637015044,10.097510459-15.2628315082,15.1287525021-1.337075275,1.3192699267-2.9209901043,2.0087749812-4.8202736391,1.3890444151-1.7653207021-.5760157446-2.862238661-1.8152951575-3.2316275692-3.6343780242-.3363355416-1.6563079067.2427799455-3.07919752,1.3867589805-4.2408374111,3.6992024984-3.7563399911,7.429924828-7.4816684675,11.1526784536-11.214788154,2.6936463281-2.7011421127,5.3945939884-5.3950154581,8.0909126438-8.0935056065,1.0833177722-1.0841934458,1.0855186795-1.0897302023-.0406301672-2.2136264507-4.5876420058-4.5784744964-9.1851327164-9.147113442-13.763624628-13.7347136487-1.8835789968-1.8873240995-3.7816797215-3.7648098088-5.5764031241-5.7348956396C-.6324392481,5.6755444389-.3947086098,2.8690705041,1.8098535359,1.0611278752c1.676936528-1.3752394358,3.9204675109-1.4506330221,5.6389443877-.009487729,1.3978401934,1.1722534272,2.6630096996,2.5056619584,3.9591850187,3.7955572628,5.2979471826,5.2722726666,10.5782871073,10.5622402389,15.8810791257,15.829626363,1.4014184425,1.3920626572,1.1462892776,1.1517049625,2.2738807835.0275986012,5.754602772-5.7368093698,11.4901840259-11.4926935753,17.244167704-17.2301261852.8331016002-.8307093794,1.6851736007-1.6539952461,2.6059934231-2.3828084318,2.021540381-1.6000132907,4.5488691203-1.3874032637,6.2820594168.4577690832,1.6197597983,1.7244100107,1.7007475042,4.3168002895.0337945754,6.1675931541-1.8872822007,2.0954096027-3.8655598455,4.1120751716-5.8607177387,6.1065284094-4.6497927858,4.6481694827-9.3217650366,9.2743935343-14.0170243058,13.87660226-.643783821.6310227098-.640319167.9712805265.0045722073,1.6111080987,6.3847778867,6.3346285772,12.7315240966,12.7075374366,19.0954913406,19.0631602584,1.354248031,1.3524734291,2.3271626174,2.8396973127,1.8579235184,4.873640401-.7943031558,3.4430277223-4.7393569302,4.8768715953-7.4105710439,2.5700487568-2.1075944334-1.820088001-4.0191405712-3.8690797093-5.9953564629-5.8388702465-4.6783108636-4.6631130463-9.34279719-9.3400765017-14.014979592-14.0093396066-.2608316445-.2606648136-.5406791274-.5023059001-.8590524262-.7966001204Z"/>
  </g>
</svg>