<?xml version="1.0" encoding="utf-8"?>
<!-- Generator: Adobe Illustrator 27.3.1, SVG Export Plug-In . SVG Version: 6.00 Build 0)  -->
<svg version="1.1" id="Layer_1" xmlns="http://www.w3.org/2000/svg" xmlns:xlink="http://www.w3.org/1999/xlink" x="0px" y="0px"
	 viewBox="0 0 512 512" style="enable-background:new 0 0 512 512;" xml:space="preserve">
<style type="text/css">
	.st0{fill:#9F1C20;}
</style>
<g>
	<path class="st0" d="M206.8,282.6h-50.7c-8.2,0-10.8-3.1-10.8-10.8v-62c0-8.2,3.1-10.8,10.8-10.8h50.7v-45.1
		c0-20.5,3.6-39.9,13.8-57.9c10.8-18.4,26.1-30.7,45.6-37.9c12.8-4.6,25.6-6.7,39.4-6.7h50.2c7.2,0,10.2,3.1,10.2,10.2v58.4
		c0,7.2-3.1,10.2-10.2,10.2c-13.8,0-27.6,0-41.5,0.5c-13.8,0-21,6.7-21,21c-0.5,15.4,0,30.2,0,46.1h59.4c8.2,0,11.3,3.1,11.3,11.3
		v62c0,8.2-2.6,10.8-11.3,10.8h-59.4V449c0,8.7-2.6,11.8-11.8,11.8h-64c-7.7,0-10.8-3.1-10.8-10.8V282.6z"/>
</g>
</svg>
