<?xml version="1.0" encoding="utf-8"?>
<!-- Generator: Adobe Illustrator 27.3.1, SVG Export Plug-In . SVG Version: 6.00 Build 0)  -->
<svg version="1.1" id="Layer_1" xmlns="http://www.w3.org/2000/svg" xmlns:xlink="http://www.w3.org/1999/xlink" x="0px" y="0px"
	 viewBox="0 0 512 512" style="enable-background:new 0 0 512 512;" xml:space="preserve">
<style type="text/css">
	.st0{fill:#9F1C20;}
</style>
<g transform="matrix(0.95,0,0,0.95,0.6000124815851464,0.5999180316925052)">
	<path class="st0" d="M460.8,119.5h-16.5c-2.9-4.3-5.9-8.4-9.1-12.4c-52-69.4-134.7-103.9-220.7-92
		C107.9,29.8,23.5,118.4,13.8,225.8c-5.3,59.1,11.4,117.4,47.3,164.1c10.2,13.3,15.8,31.1,15.8,50.2v20.7c0,35.3,28.7,64,64,64
		h149.3c35.3,0,64-28.7,64-64h10.5c53.5-0.1,98.6-39.7,105.7-92.7l1.5-11.2c1.9-11.6-6.1-22.6-17.7-24.4
		c-11.6-1.9-22.6,6.1-24.4,17.7c-0.1,0.4-0.1,0.8-0.2,1.2l-1.5,11.2c-4.3,31.8-31.4,55.5-63.5,55.6h-31.9
		c-11.8,0-21.3,9.6-21.3,21.3v21.3c0,11.8-9.6,21.3-21.3,21.3H140.8c-11.8,0-21.3-9.6-21.3-21.3v-20.7c0-28.4-8.7-55.5-24.6-76.2
		c-29.3-38.3-43.1-86.3-38.6-134.3l0.3-3.5h172.2c9.8,37.7,43.7,64,82.6,64h149.3c35.3,0,64-28.7,64-64v-42.7
		C524.8,148.2,496.1,119.5,460.8,119.5L460.8,119.5z M220.3,57.4c64.7-9,126.9,14,170,62.1h-78.8c-38.9,0-72.9,26.3-82.6,64H66.5
		C89.9,117.4,149.1,67.2,220.3,57.4L220.3,57.4z M482.2,226.2c0,11.8-9.6,21.3-21.3,21.3H311.5c-23.5,0-42.7-19.1-42.7-42.7
		s19.1-42.7,42.7-42.7h149.3c11.8,0,21.3,9.6,21.3,21.3V226.2z"/>
</g>
</svg>
