<?xml version="1.0" encoding="utf-8"?>
<!-- Generator: Adobe Illustrator 27.3.1, SVG Export Plug-In . SVG Version: 6.00 Build 0)  -->
<svg version="1.1" id="Layer_1" xmlns="http://www.w3.org/2000/svg" xmlns:xlink="http://www.w3.org/1999/xlink" x="0px" y="0px"
	 viewBox="0 0 512 512" style="enable-background:new 0 0 512 512;" xml:space="preserve">
<style type="text/css">
	.st0{fill:#9F1C20;}
</style>
<g transform="matrix(0.95,0,0,0.95,0.6250000238418583,0.6000000223591897)">
	<path class="st0" d="M248,44.8c0-17.7,14.3-32,32-32c17.7,0,32,14.3,32,32s-14.3,32-32,32C262.4,76.9,248,62.5,248,44.8z
		 M365.4,460.8H312V215.5c0-52.9-43.1-96-96-96h-21.3c-17.7,0-32,14.3-32,32s14.3,32,32,32H216c17.6,0,32,14.4,32,32v245.3h-53.3
		c-17.7,0-32,14.3-32,32s14.3,32,32,32h170.7c17.7,0,32-14.3,32-32S383.1,460.8,365.4,460.8z"/>
</g>
</svg>
