<?xml version="1.0" encoding="utf-8"?>
<!-- Generator: Adobe Illustrator 27.3.1, SVG Export Plug-In . SVG Version: 6.00 Build 0)  -->
<svg version="1.1" id="Layer_1" xmlns="http://www.w3.org/2000/svg" xmlns:xlink="http://www.w3.org/1999/xlink" x="0px" y="0px"
	 viewBox="0 0 512 512" style="enable-background:new 0 0 512 512;" xml:space="preserve">
<style type="text/css">
	.st0{fill:#9F1C20;}
</style>
<g transform="matrix(0.95,0,0,0.95,0.599999999627471,0.599999999627471)">
	<path class="st0" d="M268.8,59c68.4,0,76.5,0.3,103.4,1.5c27.9,1.3,56.6,7.6,77,28c20.5,20.5,26.7,49,28,77
		c1.2,27,1.5,35.1,1.5,103.4s-0.3,76.5-1.5,103.4c-1.3,27.8-7.8,56.8-28,77c-20.5,20.5-49,26.7-77,28c-27,1.2-35.1,1.5-103.4,1.5
		s-76.5-0.3-103.4-1.5c-27.5-1.3-56.9-7.9-77-28c-20.4-20.4-26.7-49.2-28-77c-1.2-27-1.5-35.1-1.5-103.4s0.3-76.5,1.5-103.4
		c1.3-27.6,7.8-56.8,28-77c20.5-20.5,49-26.7,77-28C192.4,59.2,200.5,59,268.8,59 M268.8,12.8c-69.5,0-78.3,0.3-105.6,1.5
		c-39.6,1.8-78.9,12.8-107.5,41.4c-28.7,28.7-39.6,67.9-41.4,107.5c-1.2,27.3-1.5,36-1.5,105.6s0.3,78.3,1.5,105.6
		c1.8,39.5,12.9,78.9,41.4,107.5c28.7,28.7,68,39.6,107.5,41.4c27.3,1.2,36,1.5,105.6,1.5s78.3-0.3,105.6-1.5
		c39.6-1.8,78.9-12.8,107.5-41.4c28.7-28.7,39.6-67.9,41.4-107.5c1.2-27.3,1.5-36,1.5-105.6s-0.3-78.3-1.5-105.6
		c-1.8-39.6-12.8-78.9-41.4-107.5c-28.7-28.7-68-39.6-107.5-41.4C347.1,13.1,338.4,12.8,268.8,12.8z"/>
	<path class="st0" d="M268.8,137.4c-72.6,0-131.5,58.9-131.5,131.5s58.9,131.5,131.5,131.5s131.5-58.9,131.5-131.5
		S341.4,137.4,268.8,137.4z M268.8,354.2c-47.1,0-85.3-38.2-85.3-85.3s38.2-85.3,85.3-85.3s85.3,38.2,85.3,85.3
		S316,354.2,268.8,354.2z"/>
	<circle class="st0" cx="405.5" cy="132.2" r="30.7"/>
</g>
</svg>
