<?xml version="1.0" encoding="utf-8"?>
<!-- Generator: Adobe Illustrator 27.3.1, SVG Export Plug-In . SVG Version: 6.00 Build 0)  -->
<svg version="1.1" id="Layer_1" xmlns="http://www.w3.org/2000/svg" xmlns:xlink="http://www.w3.org/1999/xlink" x="0px" y="0px"
	 viewBox="0 0 512 512" style="enable-background:new 0 0 512 512;" xml:space="preserve">
<style type="text/css">
	.st0{fill:#9F1C20;}
</style>
<g transform="matrix(0.9,0,0,0.9,1.1999999999999993,1.1944499969482418)">
	<path class="st0" d="M283.1,27C165.3,27.1,69.9,122.6,69.8,240.3C69.8,353,249,507.7,269.3,525l13.8,11.6l13.8-11.6
		c20.4-17.3,199.6-172,199.6-284.7C496.3,122.6,400.9,27.1,283.1,27z M283.1,347c-58.9,0-106.7-47.8-106.7-106.7
		s47.8-106.7,106.7-106.7s106.7,47.8,106.7,106.7C389.7,299.2,342,346.9,283.1,347z"/>
	<circle class="st0" cx="283.1" cy="240.3" r="64"/>
</g>
</svg>
