<?xml version="1.0" encoding="UTF-8"?>
<svg id="Layer_2" data-name="Layer 2" xmlns="http://www.w3.org/2000/svg" viewBox="0 0 24 24.0049093632">
  <defs>
    <style>
      .cls-1 {
        fill: #9f1c20;
      }
    </style>
  </defs>
  <g id="Layer_1-2" data-name="Layer 1">
    <path class="cls-1" d="m17,11.0039099126c1.1030006409,0,2-.8970003128,2-2s-.8969993591-2-2-2-2,.896999836-2,2c0,1.1030006409.8970003128,2,2,2ZM22.716999054.337909904c-.8099994659-.4609999955-1.7730007172-.449000001-2.5750007629.0279999971-1.3330001831.7929999828-4.7950000763,2.6380000114-8.1420001984,2.6380000114S5.1909999847,1.1589098839,3.8580000401.3659099011c-.8020000458-.4779999852-1.7650001049-.4880000055-2.5750000477-.0279999971C.4790000021.7949099211,0,1.6199099688,0,2.5459099679v18.9129998684c0,.9260005951.4790000021,1.7509994507,1.2829999924,2.2080001831.8099999428.4599990845,1.771999836.4500007629,2.5750000477-.0279998779,1.3320000172-.7919998169,4.7899997234-2.6350002289,8.1419999599-2.6350002289s6.811000824,1.843000412,8.1420001984,2.6350002289c.4099998474.2439994812.861000061.3659992218,1.3120002747.3659992218.4330005646,0,.8659992218-.1119995117,1.2630004883-.3379993439.8029994965-.4570007324,1.2829990387-1.281999588,1.2829990387-2.2080001831V2.5459099679c0-.925999999-.4790000916-1.7510000467-1.283000946-2.2080000639ZM2.2709999084,2.0759099393c.0840001106-.0469999313.3080000877-.1440000534.5640001297.0090000629,1.4749999046.878000021,5.3210000992,2.9189999104,9.1649999619,2.9189999104s7.688999176-2.0409998894,9.1650009155-2.9189999104c.2560005188-.1519999504.4790000916-.0559999943.563999176-.0090000629.1019992828.0580000877.2709999084.1949999332.2709999084.4700000286v18.9129998684c0,.0100002289,0,.0200004578-.0009994507.0310001373l-10.3129997253-10.3140001297c-1.5100002289-1.5109996796-4.1459999084-1.5129995346-5.6570000648,0l-4.0289998055,4.0279998779V2.5459099679c0-.2739999294.1700000763-.4119999409.2709989548-.4700000286Zm.5640001297,19.8440003395c-.256000042.1509990692-.4790000916.0569992065-.5640001297.0090007782-.1019999981-.0580005646-.2710000277-.1949996948-.2710000277-.4699993134v-3.4270000458l5.442999959-5.4419994354c.7559995651-.7569999695,2.0729999542-.7550001144,2.8289995193,0l7.767999649,7.767999649c-1.736000061-.7159996033-3.8859996796-1.3540000916-6.0389995575-1.3540000916-3.8479995728,0-7.6909999847,2.0389995575-9.1649999619,2.9160003662l-.0009994507-.0000019073Z"/>
  </g>
</svg>