<?xml version="1.0" encoding="utf-8"?>
<!-- Generator: Adobe Illustrator 27.3.1, SVG Export Plug-In . SVG Version: 6.00 Build 0)  -->
<svg version="1.1" id="Layer_1" xmlns="http://www.w3.org/2000/svg" xmlns:xlink="http://www.w3.org/1999/xlink" x="0px" y="0px"
	 viewBox="0 0 512 512" style="enable-background:new 0 0 512 512;" xml:space="preserve">
<style type="text/css">
	.st0{fill:#9F1C20;}
</style>
<g transform="matrix(0.9,0,0,0.9,1.2019536018371575,1.1978692739387036)">
	<path class="st0" d="M304.5,48.4c0-11.8,9.6-21.3,21.3-21.3c117.8,0.1,213.2,95.6,213.3,213.3c0,11.8-9.6,21.3-21.3,21.3
		c-11.8,0-21.3-9.6-21.3-21.3C496.4,146.2,420,69.8,325.8,69.7C314,69.7,304.5,60.2,304.5,48.4z M325.8,155.1
		c47.1,0,85.3,38.2,85.3,85.3c0,11.8,9.6,21.3,21.3,21.3s21.3-9.6,21.3-21.3c-0.1-70.7-57.3-127.9-128-128
		c-11.8,0-21.3,9.6-21.3,21.3S314,155.1,325.8,155.1z M519.8,384.2c25.7,25.8,25.7,67.6,0,93.4l-19.4,22.4
		C325.7,667.2-99.5,242.1,65.2,66.9l24.5-21.3c25.8-25,67-24.6,92.3,0.9c0.7,0.7,40.2,52,40.2,52c24.4,25.6,24.3,65.8-0.1,91.3
		l-24.7,31.1C225,287.9,278.2,341.2,345.2,369l31.3-24.9c25.5-24.4,65.7-24.5,91.3-0.1C467.8,344,519.1,383.5,519.8,384.2z
		 M490.5,415.2c0,0-51.1-39.3-51.7-39.9c-9.1-9.1-23.9-9.1-33,0c-0.6,0.6-43.6,34.9-43.6,34.9c-5.9,4.7-13.8,5.9-20.9,3.2
		c-87-32.4-155.7-101-188.2-187.9c-2.9-7.1-1.7-15.3,3.1-21.3c0,0,34.3-43.1,34.9-43.6c9.1-9.1,9.1-23.9,0-33
		c-0.7-0.6-39.9-51.7-39.9-51.7c-9.3-8.3-23.4-7.9-32.2,0.8L94.3,97.9C-26.1,242.6,342.4,590.6,469.2,470.8l19.4-22.4
		C498.1,439.6,498.9,424.9,490.5,415.2L490.5,415.2z"/>
</g>
</svg>
