<?xml version="1.0" encoding="utf-8"?>
<!-- Generator: Adobe Illustrator 27.3.1, SVG Export Plug-In . SVG Version: 6.00 Build 0)  -->
<svg version="1.1" id="Layer_1" xmlns="http://www.w3.org/2000/svg" xmlns:xlink="http://www.w3.org/1999/xlink" x="0px" y="0px"
	 viewBox="0 0 512 512" style="enable-background:new 0 0 512 512;" xml:space="preserve">
<style type="text/css">
	.st0{fill:#9F1C20;}
</style>
<g transform="matrix(0.95,0,0,0.95,0.6000299453735352,0.6000250339508071)">
	<path class="st0" d="M512.3,356.1c0,0-186.3-84.7-187-84.9c-15.5-5.3-32.4-1.4-44,10.2c-11.6,11.6-15.5,28.5-9.4,45.9l84.1,185.1
		c3.4,7.5,10.8,12.4,19,12.5h0.4c8.1,0,15.5-4.6,19.1-11.8l39.5-79l79-39.5c10.5-5.3,14.8-18.1,9.6-28.6
		C520.4,361.6,516.8,358.1,512.3,356.1L512.3,356.1z M408.6,399.1c-4.1,2.1-7.5,5.4-9.5,9.5L376.4,454l-64.9-142.4L454,376.4
		L408.6,399.1L408.6,399.1z M288.3,481.3c-3.7,0.3-7.4,0.6-11.1,0.7c-14.3-14.1-51.4-53.7-77.3-106.5h15.6
		c11.8,0,21.3-9.6,21.3-21.3c0-11.8-9.6-21.3-21.3-21.3h-32.6c-6.2-20.3-10-41.8-10-64s3.8-43.7,10.1-64h171.9
		c2.5,8.3,4.7,16.7,6.3,25.3c2.2,11.6,13.4,19.2,24.9,17c11.6-2.2,19.2-13.4,17-24.9c-1.1-5.8-2.4-11.6-3.9-17.3h73.2
		c8.5,26.9,11.5,55.3,8.9,83.4c-1.1,11.7,7.6,22.1,19.3,23.2c11.7,1.1,22.1-7.6,23.2-19.3c0.7-7.7,1-15.4,1-23.3
		c0-141.2-114.8-256-256-256s-256,114.8-256,256s114.8,256,256,256c7.8,0,15.6-0.4,23.2-1c11.7-1.2,20.2-11.7,19-23.4
		C309.9,488.9,299.8,480.5,288.3,481.3L288.3,481.3z M138.5,332.9H65.3c-6.4-20.2-9.8-41.7-9.8-64s3.4-43.8,9.8-64h73.2
		c-5.2,20.4-8.4,41.8-8.4,64S133.3,312.4,138.5,332.9L138.5,332.9z M200,162.2c21.8-44.3,51.5-79.4,68.9-97.9
		c17.4,18.4,47.1,53.5,68.9,97.9H200z M453.5,162.2h-68.9c-16.9-40.2-40.3-74.4-60.4-99.3C378.8,77.6,425.2,113.3,453.5,162.2z
		 M213.4,62.8c-20.1,24.9-43.6,59.1-60.4,99.3H84.1C112.4,113.3,158.9,77.6,213.4,62.8z M84.1,375.5H153
		c16.9,40.2,40.3,74.4,60.4,99.3C158.9,460,112.5,424.3,84.1,375.5z"/>
</g>
</svg>
