<?xml version="1.0" encoding="utf-8"?>
<!-- Generator: Adobe Illustrator 27.3.1, SVG Export Plug-In . SVG Version: 6.00 Build 0)  -->
<svg version="1.1" id="Layer_1" xmlns="http://www.w3.org/2000/svg" xmlns:xlink="http://www.w3.org/1999/xlink" x="0px" y="0px"
	 viewBox="0 0 512 512" style="enable-background:new 0 0 512 512;" xml:space="preserve">
<style type="text/css">
	.st0{fill:#9F1C20;}
</style>
<g transform="matrix(0.95,0,0,0.95,0.5999500036239631,0.6000000000000014)">
	<path class="st0" d="M268.8,12.8c29.5,0,53.3,23.9,53.3,53.3s-23.9,53.3-53.3,53.3c-29.5,0-53.3-23.9-53.3-53.3
		S239.4,12.8,268.8,12.8z M332.8,418.2v-89c25.6-9.1,42.6-33.2,42.7-60.4v-42.7c0-47.1-38.3-85.3-85.3-85.3h-42.7
		c-47.1,0-85.3,38.3-85.3,85.3v42.7c0,27.8,17.8,51.5,42.7,60.4v89c0,11.8,9.6,21.3,21.3,21.3c11.8,0,21.3-9.6,21.3-21.3V311.5
		c0-11.8-9.5-21.3-21.3-21.3c-11.8,0-21.3-9.6-21.3-21.3v-42.7c0-23.5,19.1-42.7,42.7-42.7h42.7c23.5,0,42.7,19.1,42.7,42.7v42.7
		c0,11.8-9.6,21.3-21.3,21.3s-21.3,9.6-21.3,21.3v106.7c0,11.8,9.6,21.3,21.3,21.3C323.3,439.5,332.8,430,332.8,418.2z M524.8,428.8
		c0-37.3-43.9-66.9-123.7-83.5c-11.5-2.5-22.9,4.7-25.4,16.2c-2.5,11.5,4.7,22.9,16.2,25.4c0.2,0,0.3,0.1,0.5,0.1
		c67.1,13.9,89.7,34.5,89.7,41.7c0,16-72.6,53.3-213.3,53.3S55.5,444.8,55.5,428.8c0-7.2,22.6-27.8,89.7-41.7
		c11.6-2.3,19.1-13.5,16.8-25c-2.3-11.6-13.5-19.1-25-16.8c-0.2,0-0.3,0.1-0.5,0.1c-79.7,16.5-123.7,46.2-123.7,83.5
		c0,66,132.7,96,256,96S524.8,494.8,524.8,428.8L524.8,428.8z"/>
</g>
</svg>
