<?xml version="1.0" encoding="utf-8"?>
<!-- Generator: Adobe Illustrator 27.3.1, SVG Export Plug-In . SVG Version: 6.00 Build 0)  -->
<svg version="1.1" id="Layer_1" xmlns="http://www.w3.org/2000/svg" xmlns:xlink="http://www.w3.org/1999/xlink" x="0px" y="0px"
	 viewBox="0 0 512 512" style="enable-background:new 0 0 512 512;" xml:space="preserve">
<style type="text/css">
	.st0{fill:#9F1C20;}
</style>
<g transform="matrix(0.9,0,0,0.9,1.1999999999999993,1.1999999523162845)">
	<path class="st0" d="M528.4,159.1c-5.9-22.2-23.1-39.5-45.3-45.6c-39.9-10.8-200-10.8-200-10.8s-160.1,0-200,10.8
		c-22.1,6-39.4,23.4-45.2,45.6c-10.7,40.2-10.7,124-10.7,124s0,83.8,10.7,124c5.9,22.2,23.1,39.5,45.3,45.6
		c39.9,10.8,200,10.8,200,10.8s160.1,0,200-10.8c22.1-6,39.4-23.4,45.3-45.6c10.7-40.2,10.7-124,10.7-124S539.1,199.3,528.4,159.1z
		 M230.8,359.2V207l133.8,76.1L230.8,359.2z"/>
</g>
</svg>
